<?xml version="1.0" encoding="utf-8"?>
<!-- Generator: Adobe Illustrator 24.0.1, SVG Export Plug-In . SVG Version: 6.00 Build 0)  -->
<svg version="1.1" id="Layer_1" xmlns="http://www.w3.org/2000/svg" xmlns:xlink="http://www.w3.org/1999/xlink" x="0px" y="0px"
	 viewBox="0 0 2560 656" style="enable-background:new 0 0 2560 656;" xml:space="preserve">
<style type="text/css">
	.st0{fill:url(#XMLID_3_);}
	.st1{fill:url(#XMLID_4_);}
	.st2{fill:url(#XMLID_5_);}
	.st3{fill:url(#XMLID_6_);}
	.st4{fill:url(#XMLID_7_);}
	.st5{fill:url(#XMLID_8_);}
	.st6{fill:url(#XMLID_9_);}
	.st7{fill:url(#XMLID_10_);}
	.st8{fill:url(#XMLID_11_);}
	.st9{fill:url(#XMLID_12_);}
</style>
<g>
	<g id="XMLID_29_">
		<linearGradient id="XMLID_3_" gradientUnits="userSpaceOnUse" x1="34.8611" y1="207.8272" x2="2445.0203" y2="-313.632">
			<stop  offset="0" style="stop-color:#D0162B"/>
			<stop  offset="0.042" style="stop-color:#C41E39"/>
			<stop  offset="0.2291" style="stop-color:#924171"/>
			<stop  offset="0.4109" style="stop-color:#695E9F"/>
			<stop  offset="0.5831" style="stop-color:#4974C4"/>
			<stop  offset="0.7432" style="stop-color:#3284DE"/>
			<stop  offset="0.8869" style="stop-color:#248EED"/>
			<stop  offset="1" style="stop-color:#1F91F3"/>
		</linearGradient>
		<circle id="XMLID_82_" class="st0" cx="74.99" cy="199.14" r="41.36"/>
		<g id="XMLID_2_">
			<linearGradient id="XMLID_4_" gradientUnits="userSpaceOnUse" x1="14.863" y1="115.3971" x2="2425.0222" y2="-406.0621">
				<stop  offset="0" style="stop-color:#D0162B"/>
				<stop  offset="0.042" style="stop-color:#C41E39"/>
				<stop  offset="0.2291" style="stop-color:#924171"/>
				<stop  offset="0.4109" style="stop-color:#695E9F"/>
				<stop  offset="0.5831" style="stop-color:#4974C4"/>
				<stop  offset="0.7432" style="stop-color:#3284DE"/>
				<stop  offset="0.8869" style="stop-color:#248EED"/>
				<stop  offset="1" style="stop-color:#1F91F3"/>
			</linearGradient>
			<circle id="XMLID_80_" class="st1" cx="229.02" cy="69.06" r="41.36"/>
			<linearGradient id="XMLID_5_" gradientUnits="userSpaceOnUse" x1="68.6349" y1="363.9282" x2="2478.7939" y2="-157.5311">
				<stop  offset="0" style="stop-color:#D0162B"/>
				<stop  offset="0.042" style="stop-color:#C41E39"/>
				<stop  offset="0.2291" style="stop-color:#924171"/>
				<stop  offset="0.4109" style="stop-color:#695E9F"/>
				<stop  offset="0.5831" style="stop-color:#4974C4"/>
				<stop  offset="0.7432" style="stop-color:#3284DE"/>
				<stop  offset="0.8869" style="stop-color:#248EED"/>
				<stop  offset="1" style="stop-color:#1F91F3"/>
			</linearGradient>
			<circle id="XMLID_83_" class="st2" cx="229.02" cy="329.23" r="41.36"/>
			<linearGradient id="XMLID_6_" gradientUnits="userSpaceOnUse" x1="20.284" y1="140.4528" x2="2430.4431" y2="-381.0064">
				<stop  offset="0" style="stop-color:#D0162B"/>
				<stop  offset="0.042" style="stop-color:#C41E39"/>
				<stop  offset="0.2291" style="stop-color:#924171"/>
				<stop  offset="0.4109" style="stop-color:#695E9F"/>
				<stop  offset="0.5831" style="stop-color:#4974C4"/>
				<stop  offset="0.7432" style="stop-color:#3284DE"/>
				<stop  offset="0.8869" style="stop-color:#248EED"/>
				<stop  offset="1" style="stop-color:#1F91F3"/>
			</linearGradient>
			<polyline id="XMLID_263_" class="st3" points="471.47,56.23 229.02,56.23 229.02,81.9 471.47,81.9 			"/>
			<linearGradient id="XMLID_7_" gradientUnits="userSpaceOnUse" x1="43.726" y1="248.8006" x2="2453.885" y2="-272.6586">
				<stop  offset="0" style="stop-color:#D0162B"/>
				<stop  offset="0.042" style="stop-color:#C41E39"/>
				<stop  offset="0.2291" style="stop-color:#924171"/>
				<stop  offset="0.4109" style="stop-color:#695E9F"/>
				<stop  offset="0.5831" style="stop-color:#4974C4"/>
				<stop  offset="0.7432" style="stop-color:#3284DE"/>
				<stop  offset="0.8869" style="stop-color:#248EED"/>
				<stop  offset="1" style="stop-color:#1F91F3"/>
			</linearGradient>
			<polyline id="XMLID_264_" class="st4" points="471.47,186.31 74.99,186.31 74.99,211.98 471.47,211.98 			"/>
			<linearGradient id="XMLID_8_" gradientUnits="userSpaceOnUse" x1="74.0559" y1="388.9838" x2="2484.2151" y2="-132.4755">
				<stop  offset="0" style="stop-color:#D0162B"/>
				<stop  offset="0.042" style="stop-color:#C41E39"/>
				<stop  offset="0.2291" style="stop-color:#924171"/>
				<stop  offset="0.4109" style="stop-color:#695E9F"/>
				<stop  offset="0.5831" style="stop-color:#4974C4"/>
				<stop  offset="0.7432" style="stop-color:#3284DE"/>
				<stop  offset="0.8869" style="stop-color:#248EED"/>
				<stop  offset="1" style="stop-color:#1F91F3"/>
			</linearGradient>
			<polyline id="XMLID_265_" class="st5" points="471.47,316.39 229.02,316.39 229.02,342.06 471.47,342.06 			"/>
			<g id="XMLID_64_">
				<linearGradient id="XMLID_9_" gradientUnits="userSpaceOnUse" x1="62.0341" y1="333.4195" x2="2472.1931" y2="-188.0397">
					<stop  offset="0" style="stop-color:#D0162B"/>
					<stop  offset="0.042" style="stop-color:#C41E39"/>
					<stop  offset="0.2291" style="stop-color:#924171"/>
					<stop  offset="0.4109" style="stop-color:#695E9F"/>
					<stop  offset="0.5831" style="stop-color:#4974C4"/>
					<stop  offset="0.7432" style="stop-color:#3284DE"/>
					<stop  offset="0.8869" style="stop-color:#248EED"/>
					<stop  offset="1" style="stop-color:#1F91F3"/>
				</linearGradient>
				<path id="XMLID_65_" class="st6" d="M543.98,27.54v128.52h277.33V27.54h93.7v343.22h-93.7V232.46H543.98v138.29h-93.7V27.54
					H543.98z"/>
				<linearGradient id="XMLID_10_" gradientUnits="userSpaceOnUse" x1="90.4726" y1="464.8609" x2="2500.6316" y2="-56.5983">
					<stop  offset="0" style="stop-color:#D0162B"/>
					<stop  offset="0.042" style="stop-color:#C41E39"/>
					<stop  offset="0.2291" style="stop-color:#924171"/>
					<stop  offset="0.4109" style="stop-color:#695E9F"/>
					<stop  offset="0.5831" style="stop-color:#4974C4"/>
					<stop  offset="0.7432" style="stop-color:#3284DE"/>
					<stop  offset="0.8869" style="stop-color:#248EED"/>
					<stop  offset="1" style="stop-color:#1F91F3"/>
				</linearGradient>
				<path id="XMLID_67_" class="st7" d="M1256.22,27.54l217.96,343.22h-100.97l-47.34-75.16h-232.24l-47.85,75.16H945.07
					l217.96-343.22H1256.22z M1139.73,222.95h139.79l-69.65-110.23L1139.73,222.95z"/>
				<linearGradient id="XMLID_11_" gradientUnits="userSpaceOnUse" x1="109.5394" y1="552.9866" x2="2519.6985" y2="31.5274">
					<stop  offset="0" style="stop-color:#D0162B"/>
					<stop  offset="0.042" style="stop-color:#C41E39"/>
					<stop  offset="0.2291" style="stop-color:#924171"/>
					<stop  offset="0.4109" style="stop-color:#695E9F"/>
					<stop  offset="0.5831" style="stop-color:#4974C4"/>
					<stop  offset="0.7432" style="stop-color:#3284DE"/>
					<stop  offset="0.8869" style="stop-color:#248EED"/>
					<stop  offset="1" style="stop-color:#1F91F3"/>
				</linearGradient>
				<path id="XMLID_70_" class="st8" d="M1875.26,27.54c30.73,0,56.79,9.77,78.17,29.31c21.54,19.54,32.23,43.18,32.06,70.9v22.05
					h-93.69v-5.76c0-11.52-4.26-21.04-12.78-28.56c-8.35-8.18-18.79-12.03-31.31-11.52h-205.68c-12.03-0.17-22.47,3.76-31.32,11.77
					c-8.52,7.35-12.77,16.79-12.77,28.31v110.23c0,11.02,4.34,20.54,13.03,28.56c8.68,7.52,19.04,11.36,31.06,11.53h205.68
					c12.52-0.5,22.96-4.43,31.31-11.78c8.52-8.02,12.78-17.45,12.78-28.31V249h93.69v21.55c0.17,27.73-10.52,51.36-32.06,70.9
					c-21.38,19.54-47.44,29.31-78.17,29.31h-260.8c-30.56,0-56.61-9.77-78.16-29.31c-21.38-19.54-32.07-43.17-32.07-70.9v-142.8
					c0-27.72,10.78-51.36,32.32-70.9c21.55-19.54,47.52-29.31,77.91-29.31H1875.26z"/>
				<linearGradient id="XMLID_12_" gradientUnits="userSpaceOnUse" x1="133.4018" y1="663.2775" x2="2543.5608" y2="141.8183">
					<stop  offset="0" style="stop-color:#D0162B"/>
					<stop  offset="0.042" style="stop-color:#C41E39"/>
					<stop  offset="0.2291" style="stop-color:#924171"/>
					<stop  offset="0.4109" style="stop-color:#695E9F"/>
					<stop  offset="0.5831" style="stop-color:#4974C4"/>
					<stop  offset="0.7432" style="stop-color:#3284DE"/>
					<stop  offset="0.8869" style="stop-color:#248EED"/>
					<stop  offset="1" style="stop-color:#1F91F3"/>
				</linearGradient>
				<path id="XMLID_72_" class="st9" d="M2124.53,27.54v147.31l228.73-147.31h154.08l-262.3,161.09l281.34,182.13H2372.3
					L2124.53,202.9v167.85h-93.7V27.54H2124.53z"/>
			</g>
		</g>
	</g>
	<g id="XMLID_76_">
		<g>
			<path id="XMLID_221_" d="M1779.28,175.38c0-17.43-14.13-31.56-31.56-31.56c-17.43,0-31.56,14.13-31.56,31.56
				c0,11.4,6.37,20.94,15.43,26.48l-7.38,52.6h47.03l-7.38-52.6C1772.91,196.32,1779.28,186.78,1779.28,175.38z"/>
			<circle id="XMLID_220_" cx="70.36" cy="478.85" r="41.36"/>
			<polyline id="XMLID_219_" points="544.93,466.01 70.36,466.01 70.36,491.68 544.93,491.68 			"/>
			<polyline id="XMLID_218_" points="474.33,574.27 231.88,574.27 231.88,599.94 474.33,599.94 			"/>
			<circle id="XMLID_217_" cx="231.88" cy="587.1" r="41.36"/>
			<g id="XMLID_199_">
				<path id="XMLID_214_" d="M590.82,458.12L687.27,610H642.6l-20.95-33.26H518.88L497.7,610h-44.56l96.45-151.88H590.82z
					 M539.28,544.59h61.86l-30.82-48.78L539.28,544.59z"/>
				<path id="XMLID_212_" d="M932.87,458.12c13.6,0,25.13,4.33,34.59,12.97c9.53,8.65,14.26,19.11,14.19,31.37v9.75h-41.46v-2.55
					c0-5.1-1.88-9.31-5.65-12.64c-3.7-3.62-8.32-5.32-13.86-5.1h-91.01c-5.32-0.07-9.94,1.67-13.86,5.21
					c-3.77,3.25-5.65,7.43-5.65,12.53v48.78c0,4.88,1.92,9.09,5.76,12.64c3.84,3.32,8.43,5.03,13.75,5.1h91.01
					c5.54-0.22,10.16-1.96,13.86-5.21c3.77-3.55,5.65-7.72,5.65-12.52v-2.33h41.46v9.53c0.07,12.27-4.66,22.73-14.19,31.37
					C958,605.68,946.47,610,932.87,610H817.46c-13.52,0-25.05-4.32-34.59-12.97c-9.46-8.65-14.19-19.1-14.19-31.37v-63.19
					c0-12.27,4.77-22.73,14.3-31.37c9.53-8.65,21.03-12.97,34.48-12.97H932.87z"/>
				<path id="XMLID_209_" d="M1200.86,458.12L1297.31,610h-44.68l-20.95-33.26h-102.77L1107.74,610h-44.56l96.45-151.88H1200.86z
					 M1149.31,544.59h61.86l-30.82-48.78L1149.31,544.59z"/>
				<path id="XMLID_206_" d="M1539.91,458.12c9.02,0,17.52,1.96,25.5,5.88c8.28,3.92,14.75,9.31,19.4,16.18
					c5.1,6.87,7.54,14.3,7.31,22.28v63.19c0.23,7.98-2.25,15.41-7.43,22.29c-4.88,6.87-11.34,12.27-19.4,16.18
					c-7.76,3.92-16.22,5.87-25.38,5.87h-161.19V458.12H1539.91z M1420.18,576.19h110.97c5.54-0.22,10.16-1.96,13.86-5.21
					c3.76-3.55,5.65-7.72,5.65-12.52v-48.78c0-5.1-1.88-9.31-5.65-12.64c-3.7-3.62-8.32-5.32-13.86-5.1h-110.97V576.19z"/>
				<path id="XMLID_204_" d="M1868.09,458.12v33.81h-146.11v24.83h126.6v33.26h-126.6v26.16h146.11V610h-187.57V458.12H1868.09z"/>
				<path id="XMLID_202_" d="M2198.38,458.12V610h-41.46v-96.23l-61.86,82.59h-35.58l-61.86-82.59V610h-41.46V458.12h43.01
					l78.05,106.43l78.04-106.43H2198.38z"/>
				<path id="XMLID_200_" d="M2340.99,458.12l64.41,63.97l64.41-63.97H2531l-104.87,96.89V610h-41.46v-54.99l-104.88-96.89H2340.99z
					"/>
			</g>
		</g>
	</g>
</g>
</svg>
